HIERARCHY
ROOT Hips
{
	OFFSET	0.00	0.00	0.00
	CHANNELS 6 Xposition Yposition Zposition Zrotation Xrotation Yrotation
	JOINT LeftUpLeg
	{
		OFFSET	 0.126116	-0.065224	 0.014019
		CHANNELS 3 Zrotation Xrotation Yrotation
		JOINT LeftLeg
		{
			OFFSET	 0.000000	 0.569914	 0.000000
			CHANNELS 3 Zrotation Xrotation Yrotation
			JOINT LeftFoot
			{
				OFFSET	 0.000000	 0.544423	 0.000000
				CHANNELS 3 Zrotation Xrotation Yrotation
				JOINT LeftToeBase
				{
					OFFSET	 0.000000	 0.207117	 0.000000
					CHANNELS 3 Zrotation Xrotation Yrotation
					End Site
					{
						OFFSET	 0.000000	 0.207117	 0.000000
					}
				}
			}
		}
	}
	JOINT RightUpLeg
	{
		OFFSET	-0.124023	-0.065224	 0.008373
		CHANNELS 3 Zrotation Xrotation Yrotation
		JOINT RightLeg
		{
			OFFSET	 0.000000	 0.570047	 0.000000
			CHANNELS 3 Zrotation Xrotation Yrotation
			JOINT RightFoot
			{
				OFFSET	 0.000000	 0.544354	 0.000000
				CHANNELS 3 Zrotation Xrotation Yrotation
				JOINT RightToeBase
				{
					OFFSET	 0.000000	 0.207540	 0.000000
					CHANNELS 3 Zrotation Xrotation Yrotation
					End Site
					{
						OFFSET	 0.000000	 0.207540	 0.000000
					}
				}
			}
		}
	}
	JOINT Spine
	{
		OFFSET	 0.000184	 0.117403	 0.007763
		CHANNELS 3 Zrotation Xrotation Yrotation
		JOINT Spine1
		{
			OFFSET	 0.000000	 0.137269	 0.000000
			CHANNELS 3 Zrotation Xrotation Yrotation
			JOINT Spine2
			{
				OFFSET	 0.000000	 0.156879	 0.000000
				CHANNELS 3 Zrotation Xrotation Yrotation
				JOINT LeftShoulder
				{
					OFFSET	 0.080501	 0.160143	 0.002496
					CHANNELS 3 Zrotation Xrotation Yrotation
					JOINT LeftArm
					{
						OFFSET	 0.000000	 0.164363	 0.000000
						CHANNELS 3 Zrotation Xrotation Yrotation
						JOINT LeftForeArm
						{
							OFFSET	 0.000000	 0.364576	 0.000000
							CHANNELS 3 Zrotation Xrotation Yrotation
							JOINT LeftHand
							{
								OFFSET	 0.000000	 0.360812	 0.000000
								CHANNELS 3 Zrotation Xrotation Yrotation
								JOINT LeftHandIndex1
								{
									OFFSET	 0.000000	 0.086006	 0.000000
									CHANNELS 3 Zrotation Xrotation Yrotation
									JOINT LeftHandIndex2
									{
										OFFSET	 0.000000	 0.047237	 0.000000
										CHANNELS 3 Zrotation Xrotation Yrotation
										JOINT LeftHandIndex3
										{
											OFFSET	-0.004284	 0.038165	 0.000551
											CHANNELS 3 Zrotation Xrotation Yrotation
											End Site
											{
												OFFSET	-0.004284	 0.038165	 0.000551
											}
										}
									}
								}
							}
						}
					}
				}
				JOINT Neck
				{
					OFFSET	 0.000000	 0.176489	 0.000000
					CHANNELS 3 Zrotation Xrotation Yrotation
					JOINT Head
					{
						OFFSET	 0.000000	 0.077941	 0.001747
						CHANNELS 3 Zrotation Xrotation Yrotation
						End Site
						{
							OFFSET	 0.000000	 0.077941	 0.001747
						}
					}
				}
				JOINT RightShoulder
				{
					OFFSET	-0.080363	 0.159706	-0.000306
					CHANNELS 3 Zrotation Xrotation Yrotation
					JOINT RightArm
					{
						OFFSET	 0.000000	 0.164196	 0.000000
						CHANNELS 3 Zrotation Xrotation Yrotation
						JOINT RightForeArm
						{
							OFFSET	 0.000000	 0.365611	 0.000000
							CHANNELS 3 Zrotation Xrotation Yrotation
							JOINT RightHand
							{
								OFFSET	 0.000000	 0.360648	 0.000000
								CHANNELS 3 Zrotation Xrotation Yrotation
								JOINT RightHandIndex1
								{
									OFFSET	 0.000000	 0.069977	 0.000000
									CHANNELS 3 Zrotation Xrotation Yrotation
									JOINT RightHandIndex2
									{
										OFFSET	 0.000000	 0.052305	 0.000000
										CHANNELS 3 Zrotation Xrotation Yrotation
										JOINT RightHandIndex3
										{
											OFFSET	 0.009002	 0.042196	 0.000782
											CHANNELS 3 Zrotation Xrotation Yrotation
											End Site
											{
												OFFSET	 0.009002	 0.042196	 0.000782
											}
										}
									}
								}
							}
						}
					}
				}
			}
		}
	}
}
MOTION
Frames:    6
Frame Time: 0.03333334
 0.445295	 1.263056	 0.518781	-0.072333	-11.160340	-174.380300	 179.941800	 27.996010	-16.701690	 6.644660	-23.536210	 12.798120	 22.655490	 64.630060	-16.119240	 1.292262	 28.425850	-2.713146	 171.672800	 28.578010	 25.623520	-4.756402	-23.335740	-5.303159	-17.395010	 62.943460	 8.635327	-1.288183	 28.361890	 2.710176	 1.056783	 3.244880	-11.977130	 1.243626	 7.508165	-1.527753	 0.355418	-8.668879	 0.494891	-119.589900	 10.684770	 95.453030	 21.861250	 22.949040	 26.778160	 84.777570	-12.218570	 19.682550	 34.733430	-57.230490	 30.627060	-6.580301	 5.266122	 0.000000	 0.000000	 0.000000	 0.000000	 0.000000	 0.000000	 0.000000	-0.291590	 2.829270	-1.742061	-0.207150	-10.068310	-0.302346	 124.682900	 10.531450	-96.649420	-33.744370	 19.618450	-2.770329	-106.104700	 6.210290	-48.160610	-9.616593	-48.692450	-23.586830	 15.208500	 5.323790	 0.000000	 0.000000	 0.000000	 0.000000	 0.000000	 0.000000	 0.000000
 0.447210	 1.278404	 0.491567	 0.417021	-8.474073	-174.040400	-179.232000	 20.264720	-17.161130	 4.965171	-18.045320	 9.517269	 14.492390	 64.392810	-8.454701	 1.292262	 28.425850	-2.713146	 173.684300	 21.072510	 25.654750	-3.361687	-16.965940	-1.690127	-9.112219	 62.123130	 0.431349	-1.288183	 28.361890	 2.710176	 1.068641	 2.460352	-25.899270	 1.594877	 3.247676	-2.631779	-0.371836	-6.857210	 4.082031	-119.963700	 7.826521	 94.117970	 22.139010	 23.097350	 29.986770	 88.577160	-11.082550	 24.038480	 18.575750	-48.757260	 20.348860	-6.580301	 5.266122	 0.000000	 0.000000	 0.000000	 0.000000	 0.000000	 0.000000	 0.000000	 0.222288	 6.047171	-1.873589	 0.049382	-9.035446	 0.571827	 124.396000	 8.143537	-95.341240	-32.145810	 17.087900	-1.212971	-109.806600	 7.024855	-50.578720	-4.910330	-23.007180	-9.352888	 15.208500	 5.323790	 0.000000	 0.000000	 0.000000	 0.000000	 0.000000	 0.000000	 0.000000
 0.447385	 1.286756	 0.474609	 0.677605	-6.072672	-173.806000	-178.724500	 15.162830	-17.461530	 3.987352	-14.668080	 7.157053	 8.596564	 64.198800	-2.970275	 1.292262	 28.425850	-2.713146	 175.016900	 15.261300	 26.042970	-2.444662	-12.512310	 0.210739	-4.452475	 61.106010	-3.818488	-1.288183	 28.361890	 2.710176	 1.054718	 2.096149	-36.272540	 2.302642	 0.849940	-3.459838	-1.154483	-5.651708	 6.938682	-120.597300	 5.602301	 93.089810	 21.831610	 23.764610	 29.946480	 89.844630	-10.048880	 25.196050	 8.100070	-38.401080	 13.202840	-6.580301	 5.266122	 0.000000	 0.000000	 0.000000	 0.000000	 0.000000	 0.000000	 0.000000	 0.296501	 8.054022	-1.751460	 0.317426	-8.034965	 1.230260	 123.913800	 6.554397	-94.448720	-27.732150	 13.348710	-0.555628	-109.960200	 7.232061	-50.484700	-13.031650	-2.532429	 0.042568	 15.208500	 5.323790	 0.000000	 0.000000	 0.000000	 0.000000	 0.000000	 0.000000	 0.000000
 0.446816	 1.290822	 0.464799	 0.755214	-4.136919	-174.217300	-178.226900	 12.300890	-18.326090	 3.883508	-14.302570	 6.265175	 5.705609	 64.556350	-0.783423	 1.292262	 28.425850	-2.713146	 175.561300	 11.921590	 25.830580	-2.151359	-11.051180	 0.130517	-3.688887	 60.612640	-3.835563	-1.288183	 28.361890	 2.710176	 1.003188	 1.744039	-43.669590	 2.924602	 0.508080	-4.071324	-1.724882	-5.823192	 9.345069	-121.266400	 4.262194	 92.472330	 20.691260	 24.714240	 30.170430	 88.674050	-9.425565	 22.694400	 4.261744	-30.549880	 9.489161	-6.580301	 5.266122	 0.000000	 0.000000	 0.000000	 0.000000	 0.000000	 0.000000	 0.000000	 0.357424	 7.515657	-1.608626	 0.303275	-6.841783	 1.805913	 123.692600	 5.733060	-93.997310	-22.697220	 11.455260	-1.759911	-106.013100	 6.930324	-48.233560	-27.413420	 10.144700	 5.457989	 15.208500	 5.323790	 0.000000	 0.000000	 0.000000	 0.000000	 0.000000	 0.000000	 0.000000
 0.443717	 1.295115	 0.453300	 0.840692	-2.227114	-174.631100	-177.914500	 8.958972	-19.087340	 3.514699	-12.994380	 5.251239	 2.822344	 64.392490	 1.586539	 1.292262	 28.425850	-2.713146	 176.141100	 7.743137	 25.606200	-1.533730	-7.927667	-0.025126	-3.050316	 59.258850	-3.706521	-1.288183	 28.361890	 2.710176	 0.816069	 1.457265	-47.140850	 3.636282	-1.081462	-4.483926	-2.383199	-5.449839	 11.203170	-121.944400	 2.938294	 91.844410	 18.981420	 25.859020	 30.991860	 86.517800	-8.752026	 18.450090	 1.989853	-26.788310	 5.975768	-6.580301	 5.266122	 0.000000	 0.000000	 0.000000	 0.000000	 0.000000	 0.000000	 0.000000	 0.419207	 6.981035	-1.466343	 0.291526	-5.651692	 2.250825	 123.479700	 4.915553	-93.552690	-17.159920	 10.250610	-3.964953	-96.727260	 6.372198	-44.588200	-44.533800	 15.650570	 9.224587	 15.208500	 5.323790	 0.000000	 0.000000	 0.000000	 0.000000	 0.000000	 0.000000	 0.000000
 0.438876	 1.296852	 0.451096	 1.889272	-1.802592	-174.969100	-176.876300	 6.427301	-21.273330	 1.988922	-7.443118	 4.764998	 2.651381	 60.312130	 2.589574	 1.292262	 28.425850	-2.713146	 177.516200	 6.442530	 26.921990	-0.964077	-5.002785	 0.073783	-3.459021	 56.766250	-3.859756	-1.288183	 28.361890	 2.710176	 0.800079	 0.545788	-21.343650	 0.735493	-0.678392	-6.062038	-1.126691	-7.998827	 13.733860	-121.792100	 3.024294	 91.881050	 13.986750	 23.612710	 34.006790	 69.554870	-4.360327	-14.001040	-3.010002	-68.021450	-6.485106	-6.580301	 5.266122	 0.000000	 0.000000	 0.000000	 0.000000	 0.000000	 0.000000	 0.000000	 0.488705	 6.281294	-1.362878	 0.038795	-5.885105	 2.863824	 123.354700	 4.955978	-93.562520	-20.676940	 21.743050	-10.126610	-34.279030	 0.769801	-16.184420	-82.574490	-23.335830	-1.327641	 15.208500	 5.323790	 0.000000	 0.000000	 0.000000	 0.000000	 0.000000	 0.000000	 0.000000
